<?xml version="1.0" standalone="no"?>
<!DOCTYPE svg PUBLIC "-//W3C//DTD SVG 20010904//EN"
 "http://www.w3.org/TR/2001/REC-SVG-20010904/DTD/svg10.dtd">
<svg version="1.0" xmlns="http://www.w3.org/2000/svg"
 width="1280.000000pt" height="765.000000pt" viewBox="0 0 1280.000000 765.000000"
 preserveAspectRatio="xMidYMid meet">
<g transform="translate(0.000000,765.000000) scale(0.100000,-0.100000)"
fill="#000000" stroke="none">
<path d="M9600 7624 c-65 -30 -104 -64 -133 -119 l-22 -40 0 -3640 0 -3640 22
-40 c30 -56 68 -90 136 -119 l58 -26 1454 0 1454 0 58 26 c76 33 110 66 144
141 l29 63 0 3594 0 3595 -26 58 c-33 76 -66 110 -141 144 l-63 29 -1457 -1
-1458 0 -55 -25z m2405 -794 c27 -30 25 -88 -4 -111 -22 -18 -59 -19 -950 -19
-1045 0 -971 -6 -971 75 0 81 -74 75 976 75 926 0 931 0 949 -20z m0 -320 c27
-30 25 -88 -4 -111 -22 -18 -59 -19 -950 -19 -1041 0 -971 -5 -971 72 0 25 7
49 17 60 15 17 58 18 953 18 932 0 937 0 955 -20z m-203 -612 c51 -15 126 -82
149 -133 22 -48 25 -142 5 -189 -38 -92 -126 -150 -226 -150 -139 0 -240 102
-240 242 0 164 154 278 312 230z m150 -1405 c22 -20 24 -81 4 -109 -14 -19
-35 -19 -956 -19 l-942 0 -20 25 c-24 29 -19 87 9 107 13 10 218 13 952 13
855 0 936 -1 953 -17z m0 -390 c22 -20 24 -81 4 -109 -14 -19 -35 -19 -956
-19 l-942 0 -20 25 c-24 29 -19 87 9 107 13 10 218 13 952 13 855 0 936 -1
953 -17z m0 -390 c22 -20 24 -85 3 -107 -9 -8 -30 -18 -48 -21 -18 -3 -441 -5
-940 -3 l-909 3 -19 24 c-25 30 -24 76 1 101 20 20 33 20 957 20 857 0 938 -1
955 -17z m0 -390 c22 -20 24 -85 3 -107 -8 -8 -34 -18 -58 -21 -23 -3 -446 -5
-940 -3 l-899 3 -19 24 c-25 30 -24 76 1 101 20 20 33 20 957 20 857 0 938 -1
955 -17z m218 -1325 c30 -15 53 -37 67 -63 22 -39 23 -45 23 -429 0 -374 -1
-391 -21 -432 -12 -26 -36 -53 -57 -66 -36 -22 -45 -23 -317 -26 -239 -3 -285
-1 -322 13 -50 19 -88 61 -103 113 -13 48 -14 745 0 791 12 41 54 88 95 107
23 10 98 13 310 14 272 0 282 -1 325 -22z"/>
<path d="M130 7599 c-38 -15 -79 -59 -106 -111 l-24 -47 0 -2779 0 -2778 21
-45 c27 -56 54 -86 101 -110 36 -18 88 -19 1850 -19 997 0 1819 -4 1826 -9 13
-8 10 -57 -38 -651 -5 -63 -14 -182 -20 -265 -6 -82 -15 -160 -20 -172 l-10
-23 -658 0 c-680 0 -712 -2 -732 -40 -6 -10 -10 -62 -10 -114 l0 -96 32 -20
c33 -20 53 -20 2071 -18 l2039 3 24 28 c21 25 24 38 24 108 0 44 -5 89 -11
101 -25 47 -36 48 -707 48 -492 0 -632 3 -640 13 -6 6 -29 254 -53 550 -37
465 -41 540 -28 548 8 5 751 9 1827 9 1790 0 1813 0 1852 20 44 22 82 68 99
119 15 46 16 5568 1 5623 -14 48 -53 94 -101 118 -38 20 -89 20 -4311 19
-2806 0 -4282 -4 -4298 -10z m8504 -265 c14 -14 16 -270 16 -2672 0 -1461 -4
-2663 -8 -2670 -7 -10 -857 -12 -4218 -10 l-4209 3 -3 2669 c-1 1965 1 2672 9
2682 10 12 689 14 4205 14 3798 0 4194 -1 4208 -16z"/>
</g>
</svg>
